<svg width="17" height="16" viewBox="0 0 17 16" fill="none" xmlns="http://www.w3.org/2000/svg">
<g id="calendar-plus-02">
<path id="Icon" d="M14.375 7.66665V5.86665C14.375 4.74654 14.375 4.18649 14.157 3.75867C13.9653 3.38234 13.6593 3.07638 13.283 2.88463C12.8552 2.66665 12.2951 2.66665 11.175 2.66665H5.575C4.4549 2.66665 3.89484 2.66665 3.46702 2.88463C3.09069 3.07638 2.78473 3.38234 2.59299 3.75867C2.375 4.18649 2.375 4.74654 2.375 5.86665V11.4666C2.375 12.5868 2.375 13.1468 2.59299 13.5746C2.78473 13.951 3.09069 14.2569 3.46702 14.4487C3.89484 14.6666 4.4549 14.6666 5.575 14.6666H8.70833M14.375 6.66665H2.375M11.0417 1.33331V3.99998M5.70833 1.33331V3.99998M12.375 14V9.99998M10.375 12H14.375" stroke="#8C909A" style="stroke:#8C909A;stroke:color(display-p3 0.5474 0.5663 0.6030);stroke-opacity:1;" stroke-width="1.5" stroke-linecap="round" stroke-linejoin="round"/>
</g>
</svg>
